<?xml version="1.0" encoding="UTF-8"?>
<svg version="1.1" xmlns="http://www.w3.org/2000/svg" width="225" height="225">
<path d="M0 0 C74.25 0 148.5 0 225 0 C225 74.25 225 148.5 225 225 C150.75 225 76.5 225 0 225 C0 150.75 0 76.5 0 0 Z " fill="#FEFEFE" transform="translate(0,0)"/>
<path d="M0 0 C0.97542472 0.00201133 1.95084944 0.00402266 2.95583248 0.00609493 C4.07614864 -0.00366871 5.19646481 -0.01343235 6.35072994 -0.02349186 C7.58045025 -0.00865757 8.81017056 0.00617672 10.07715511 0.02146053 C11.37160549 0.01751781 12.66605587 0.0135751 13.99973202 0.0095129 C17.55153214 -0.00047527 21.1025363 0.02072838 24.65422082 0.04799294 C28.36752547 0.07179379 32.08081353 0.06887776 35.79418087 0.06929684 C42.02943079 0.07392702 48.26437564 0.09758421 54.49951839 0.13376522 C61.7142357 0.1755183 68.92867827 0.19308099 76.14350945 0.19638497 C83.81714958 0.19998114 91.49069045 0.21885063 99.16428924 0.24350524 C101.37903016 0.24974128 103.59376353 0.2533729 105.80851078 0.25653934 C109.92943017 0.26352192 114.05006531 0.28789572 118.17090511 0.31442928 C120.01852192 0.31542629 120.01852192 0.31542629 121.90346432 0.31644344 C123.57970882 0.33140614 123.57970882 0.33140614 125.28981686 0.3466711 C126.26486455 0.35132161 127.23991224 0.35597212 128.24450684 0.36076355 C130.55933285 0.62082577 130.55933285 0.62082577 132.55933285 2.62082577 C132.42920589 5.22824764 132.42920589 5.22824764 131.8835516 8.58957577 C131.58070248 10.49029842 131.58070248 10.49029842 131.27173519 12.42941952 C131.03545015 13.82675539 130.79795122 15.22388646 130.55933285 16.62082577 C130.44220943 17.32159237 130.32508602 18.02235897 130.20441341 18.74436092 C129.29087045 24.20864697 128.33428721 29.6649779 127.37183285 35.12082577 C127.06625207 36.8660918 126.7607523 38.61137202 126.45532894 40.35666561 C124.88275229 49.31171804 123.26557564 58.25686181 121.5788641 67.19113827 C121.3390456 68.46734035 121.3390456 68.46734035 121.09438229 69.7693243 C120.33335369 73.81754425 119.56489464 77.86403056 118.78125668 81.90793514 C117.08067947 90.82780913 115.96302021 99.53152419 115.55933285 108.62082577 C116.09650936 107.8070245 116.09650936 107.8070245 116.64453793 106.9767828 C121.0250453 100.46116157 127.02275332 95.13301894 134.55933285 92.62082577 C151.02481788 91.50359041 151.02481788 91.50359041 156.9460516 95.14035702 C160.73003224 98.61282352 163.28051286 103.0631858 165.55933285 107.62082577 C165.59955675 109.95381237 165.60253532 112.28789242 165.55933285 114.62082577 C162.91933285 114.62082577 160.27933285 114.62082577 157.55933285 114.62082577 C157.5335516 115.20090389 157.50777035 115.78098202 157.48120785 116.37863827 C156.96524957 123.48479092 154.97442995 127.31306631 149.74683285 132.30832577 C143.63780404 136.74036628 138.04718199 138.77382201 130.55933285 137.62082577 C126.10157211 136.2283229 123.43177048 133.97975498 121.12183285 129.93332577 C119.20183883 125.56000606 118.96317861 121.33142152 119.55933285 116.62082577 C119.88933285 115.96082577 120.21933285 115.30082577 120.55933285 114.62082577 C93.82933285 114.62082577 67.09933285 114.62082577 39.55933285 114.62082577 C39.55933285 116.93082577 39.55933285 119.24082577 39.55933285 121.62082577 C36.94240787 128.48271661 31.21379216 133.87304088 24.68433285 136.99582577 C18.37533713 138.25762491 12.62409764 138.6906408 7.06714535 135.00754452 C3.5445257 131.76782956 1.81336796 127.89625458 1.28589535 123.17160702 C1.19223066 117.35503014 1.19223066 117.35503014 2.55933285 114.62082577 C1.80724545 114.62606258 1.05515804 114.6312994 0.28028011 114.63669491 C-3.10586058 114.65739804 -6.49198799 114.67046453 -9.87816715 114.68332577 C-11.06217106 114.69170467 -12.24617496 114.70008358 -13.46605778 114.70871639 C-14.59076481 114.71193905 -15.71547184 114.71516171 -16.8742609 114.71848202 C-18.4374506 114.72633724 -18.4374506 114.72633724 -20.03221989 114.73435116 C-22.44066715 114.62082577 -22.44066715 114.62082577 -23.44066715 113.62082577 C-23.35103653 111.92940921 -23.19489039 110.24122975 -23.00316715 108.55832577 C-22.90133121 107.63922421 -22.79949528 106.72012264 -22.6945734 105.77316952 C-22.61078434 105.06289608 -22.52699528 104.35262264 -22.44066715 103.62082577 C-23.03605289 103.6312994 -23.63143864 103.64177303 -24.24486637 103.65256405 C-26.93509058 103.69406526 -29.62524752 103.72013281 -32.31566715 103.74582577 C-33.25281559 103.76258358 -34.18996403 103.77934139 -35.1555109 103.79660702 C-36.05140934 103.80305233 -36.94730778 103.80949764 -37.87035465 103.81613827 C-38.69777164 103.8266119 -39.52518864 103.83708553 -40.37767887 103.84787655 C-42.44066715 103.62082577 -42.44066715 103.62082577 -44.44066715 101.62082577 C-44.07385058 98.68629316 -43.57629469 97.75645331 -41.44066715 95.62082577 C-38.57629891 95.37500733 -35.80163575 95.24713195 -32.93285465 95.20676327 C-32.09223484 95.18739712 -31.25161503 95.16803097 -30.38552189 95.14807796 C-27.69567412 95.08820918 -25.00578372 95.04186805 -22.31566715 94.99582577 C-20.49403371 94.95765266 -18.67241845 94.91860133 -16.8508234 94.87863827 C-12.38091863 94.78250179 -7.91092936 94.69849807 -3.44066715 94.62082577 C-2.78066715 92.64082577 -2.12066715 90.66082577 -1.44066715 88.62082577 C-12.00066715 88.29082577 -22.56066715 87.96082577 -33.44066715 87.62082577 C-34.44066715 83.62082577 -34.44066715 83.62082577 -33.4523859 81.88254452 C-30.40762807 79.9729197 -27.80125667 80.33567193 -24.25316715 80.43332577 C-22.34471012 80.47393124 -22.34471012 80.47393124 -20.3976984 80.51535702 C-18.93396793 80.56756405 -18.93396793 80.56756405 -17.44066715 80.62082577 C-17.46240498 79.60932461 -17.4841428 78.59782345 -17.50653934 77.55567074 C-17.4435073 73.79048092 -17.02919795 70.36905459 -16.38671207 66.66330624 C-16.27448811 66.00707272 -16.16226414 65.3508392 -16.04663944 64.67471981 C-15.67766312 62.52802557 -15.29990774 60.38299922 -14.9211359 58.23801327 C-14.65905592 56.73545831 -14.39720355 55.23286364 -14.13556767 53.73023129 C-13.58736415 50.59096733 -13.0344353 47.45257852 -12.47850895 44.31467342 C-11.76806022 40.30071447 -11.07252591 36.28433 -10.38087845 32.26709461 C-9.84492437 29.167125 -9.29954243 26.06886893 -8.75148296 22.97101879 C-8.49108431 21.49087119 -8.23395319 20.01014476 -7.9802084 18.52884197 C-7.62419984 16.45721086 -7.25514809 14.38830522 -6.88280582 12.31955624 C-6.57303051 10.55586193 -6.57303051 10.55586193 -6.25699711 8.75653744 C-4.25944061 1.08346215 -4.25944061 1.08346215 0 0 Z " fill="#FE507D" transform="translate(44.440667152404785,43.37917423248291)"/>
<path d="M0 0 C2.64 0 5.28 0 8 0 C8 34.65 8 69.3 8 105 C-66.25 105 -140.5 105 -217 105 C-217 78.6 -217 52.2 -217 25 C-216.34 25.33 -215.68 25.66 -215 26 C-213.4804236 26.15123831 -211.95527498 26.24881693 -210.4296875 26.31640625 C-209.53378906 26.35830078 -208.63789063 26.40019531 -207.71484375 26.44335938 C-206.77769531 26.48267578 -205.84054688 26.52199219 -204.875 26.5625 C-203.93011719 26.60568359 -202.98523438 26.64886719 -202.01171875 26.69335938 C-199.67465828 26.7995894 -197.3373487 26.90031271 -195 27 C-195 30.3 -195 33.6 -195 37 C-186.75 37.33 -178.5 37.66 -170 38 C-170 41.63 -170 45.26 -170 49 C-168.65253476 52.45346148 -168.65253476 52.45346148 -167 55 C-167 55.66 -167 56.32 -167 57 C-166.21625 57.309375 -165.4325 57.61875 -164.625 57.9375 C-162 59 -162 59 -160 60 C-153.31121333 60.86261308 -147.67350481 59.65791758 -142 56 C-136.06541462 50.53460193 -134.15104067 46.0572847 -133 38 C-106.27 38 -79.54 38 -52 38 C-52 41.63 -52 45.26 -52 49 C-50.65253476 52.45346148 -50.65253476 52.45346148 -49 55 C-49 55.66 -49 56.32 -49 57 C-48.21625 57.309375 -47.4325 57.61875 -46.625 57.9375 C-44 59 -44 59 -42 60 C-34.69716966 61.10172009 -29.05745103 59.04536065 -23 55 C-17.57941006 50.16199683 -16.16763172 45.00579035 -15 38 C-10.05 37.67 -5.1 37.34 0 37 C1.69661035 31.96622019 1.69661035 31.96622019 2.8515625 26.9140625 C2.98046875 26.21152344 3.109375 25.50898438 3.2421875 24.78515625 C3.36851562 24.07230469 3.49484375 23.35945313 3.625 22.625 C3.7590625 21.88894531 3.893125 21.15289062 4.03125 20.39453125 C4.35806327 18.59705828 4.67958011 16.79862367 5 15 C2.69 15 0.38 15 -2 15 C-2.22577402 9.5814234 -1.46670113 5.22512279 0 0 Z " fill="#FEFEFE" transform="translate(217,120)"/>
<path d="M0 0 C0.77988281 0.09667969 1.55976562 0.19335938 2.36328125 0.29296875 C4.6875 0.8125 4.6875 0.8125 6.84977722 1.82504272 C10.3984782 3.05990281 13.70385185 3.12007749 17.4152832 3.13134766 C18.17679184 3.14139328 18.93830048 3.1514389 19.72288513 3.16178894 C22.22800983 3.19256237 24.73302794 3.20963966 27.23828125 3.2265625 C28.97992364 3.24527886 30.721557 3.26485263 32.46318054 3.2852478 C37.03828609 3.33652558 41.61342101 3.37617458 46.18865967 3.41339111 C50.86087284 3.45345807 55.53296422 3.50453814 60.20507812 3.5546875 C69.36579981 3.65139522 78.52659034 3.73581649 87.6875 3.8125 C87.6875 8.1025 87.6875 12.3925 87.6875 16.8125 C88.47125 15.636875 89.255 14.46125 90.0625 13.25 C94.24852497 7.63533166 100.00346116 3.04051295 106.6875 0.8125 C123.15298503 -0.30473536 123.15298503 -0.30473536 129.07421875 3.33203125 C132.85819939 6.80449775 135.40868002 11.25486003 137.6875 15.8125 C137.72772391 18.1454866 137.73070247 20.47956666 137.6875 22.8125 C135.0475 22.8125 132.4075 22.8125 129.6875 22.8125 C129.66171875 23.39257812 129.6359375 23.97265625 129.609375 24.5703125 C129.09341672 31.67646516 127.10259711 35.50474054 121.875 40.5 C115.76597119 44.93204051 110.17534914 46.96549624 102.6875 45.8125 C98.22973926 44.41999714 95.55993763 42.17142921 93.25 38.125 C91.33000598 33.75168029 91.09134577 29.52309576 91.6875 24.8125 C92.0175 24.1525 92.3475 23.4925 92.6875 22.8125 C65.9575 22.8125 39.2275 22.8125 11.6875 22.8125 C11.6875 25.1225 11.6875 27.4325 11.6875 29.8125 C9.07057502 36.67439084 3.34195931 42.06471511 -3.1875 45.1875 C-9.49649572 46.44929914 -15.24773521 46.88231504 -20.8046875 43.19921875 C-24.32730714 39.95950379 -26.05846489 36.08792881 -26.5859375 31.36328125 C-26.67960218 25.54670437 -26.67960218 25.54670437 -25.3125 22.8125 C-26.0645874 22.81773682 -26.8166748 22.82297363 -27.59155273 22.82836914 C-30.97769342 22.84907227 -34.36382084 22.86213877 -37.75 22.875 C-38.93400391 22.88337891 -40.11800781 22.89175781 -41.33789062 22.90039062 C-42.46259766 22.90361328 -43.58730469 22.90683594 -44.74609375 22.91015625 C-46.30928345 22.91801147 -46.30928345 22.91801147 -47.90405273 22.92602539 C-50.3125 22.8125 -50.3125 22.8125 -51.3125 21.8125 C-51.22286938 20.12108344 -51.06672324 18.43290398 -50.875 16.75 C-50.77316406 15.83089844 -50.67132813 14.91179687 -50.56640625 13.96484375 C-50.48261719 13.25457031 -50.39882813 12.54429687 -50.3125 11.8125 C-51.20557861 11.82821045 -51.20557861 11.82821045 -52.11669922 11.84423828 C-54.80692343 11.88573949 -57.49708037 11.91180704 -60.1875 11.9375 C-61.59322266 11.96263672 -61.59322266 11.96263672 -63.02734375 11.98828125 C-64.37119141 11.99794922 -64.37119141 11.99794922 -65.7421875 12.0078125 C-66.56960449 12.01828613 -67.39702148 12.02875977 -68.24951172 12.03955078 C-70.3125 11.8125 -70.3125 11.8125 -72.3125 9.8125 C-71.94568342 6.87796739 -71.44812754 5.94812754 -69.3125 3.8125 C-67.0892334 3.55421448 -67.0892334 3.55421448 -64.28710938 3.54125977 C-63.23841675 3.53107315 -62.18972412 3.52088654 -61.10925293 3.51039124 C-59.40001648 3.50718117 -59.40001648 3.50718117 -57.65625 3.50390625 C-55.24739362 3.47872689 -52.83853951 3.45332918 -50.4296875 3.42773438 C-46.62923882 3.39909147 -42.82883011 3.37508112 -39.02832031 3.35620117 C-35.36240904 3.33442016 -31.69698909 3.29494788 -28.03125 3.25390625 C-26.90795288 3.25379044 -25.78465576 3.25367462 -24.62731934 3.2535553 C-18.45066384 3.17683655 -13.18851604 2.51446273 -7.34468079 0.46734619 C-4.76614491 -0.36355646 -2.67142968 -0.38163281 0 0 Z " fill="#D23B69" transform="translate(72.3125,135.1875)"/>
<path d="M0 0 C1.55288738 -0.01650803 3.10570039 -0.04373018 4.65820312 -0.08203125 C6.90103432 -0.13707886 9.1420803 -0.15871842 11.38549805 -0.17333984 C12.073228 -0.19600922 12.76095795 -0.21867859 13.4695282 -0.24203491 C17.23954217 -0.22568086 19.65808054 0.37001821 22.58203125 2.65625 C25.72404369 5.94583775 26.07186995 7.85949302 26.1550293 12.35009766 C25.8250293 13.34009766 25.4950293 14.33009766 25.1550293 15.35009766 C23.8350293 15.35009766 22.5150293 15.35009766 21.1550293 15.35009766 C21.30842773 15.86572266 21.46182617 16.38134766 21.61987305 16.91259766 C23.68751948 26.33019893 23.3157357 36.76128256 23.1550293 46.35009766 C24.2069043 46.41197266 25.2587793 46.47384766 26.3425293 46.53759766 C30.97170864 47.52414407 32.42828786 48.50058033 35.1550293 52.35009766 C35.83381532 55.35184031 36.08139525 58.27754969 36.1550293 61.35009766 C33.5150293 61.35009766 30.8750293 61.35009766 28.1550293 61.35009766 C28.0106543 62.52572266 27.8662793 63.70134766 27.7175293 64.91259766 C27.24092753 68.73222037 26.71049385 72.54119785 26.1550293 76.35009766 C28.4650293 76.35009766 30.7750293 76.35009766 33.1550293 76.35009766 C32.8711589 78.89285163 32.57819507 81.4340132 32.2800293 83.97509766 C32.20139648 84.68794922 32.12276367 85.40080078 32.04174805 86.13525391 C30.77856445 96.7265625 30.77856445 96.7265625 28.1550293 99.35009766 C25.82205497 99.39102703 23.48797705 99.39251489 21.1550293 99.35009766 C21.06866211 98.79322266 20.98229492 98.23634766 20.89331055 97.66259766 C19.6787382 91.06602125 17.70571452 85.54121982 12.61206055 80.96337891 C6.21151861 76.93654789 -2.57500182 77.15646594 -9.8449707 78.35009766 C-16.45121374 80.58374972 -21.4362157 84.17995001 -25.6262207 89.73681641 C-26.90768397 91.43311233 -28.31479199 92.87774546 -29.8449707 94.35009766 C-30.27496622 86.38494264 -28.66053883 78.76872267 -27.2199707 70.97509766 C-26.94799838 69.47466051 -26.67677143 67.97408809 -26.40625 66.47338867 C-25.84197303 63.34631501 -25.27447767 60.21985027 -24.70483398 57.09375 C-23.45415043 50.21419589 -22.2460204 43.32715896 -21.03594971 36.44036865 C-20.67080305 34.3634314 -20.30475249 32.28665623 -19.93823242 30.20996094 C-19.7642392 29.22385834 -19.7642392 29.22385834 -19.58673096 28.21783447 C-19.24342394 26.27464074 -18.89894043 24.33165498 -18.55444336 22.38867188 C-18.03790837 19.46503114 -17.53531457 16.53924736 -17.0378418 13.61230469 C-16.90327072 12.82868057 -16.76869965 12.04505646 -16.63005066 11.23768616 C-16.36892204 9.71613459 -16.11092472 8.19404157 -15.85639954 6.67137146 C-14.30991915 -2.28976633 -7.82875782 0.06097548 0 0 Z " fill="#AFB8D1" transform="translate(188.844970703125,58.64990234375)"/>
<path d="M0 0 C1.55288738 -0.01650803 3.10570039 -0.04373018 4.65820312 -0.08203125 C6.90103432 -0.13707886 9.1420803 -0.15871842 11.38549805 -0.17333984 C12.073228 -0.19600922 12.76095795 -0.21867859 13.4695282 -0.24203491 C17.23954217 -0.22568086 19.65808054 0.37001821 22.58203125 2.65625 C25.72404369 5.94583775 26.07186995 7.85949302 26.1550293 12.35009766 C25.8250293 13.34009766 25.4950293 14.33009766 25.1550293 15.35009766 C23.8350293 15.35009766 22.5150293 15.35009766 21.1550293 15.35009766 C21.30842773 15.86572266 21.46182617 16.38134766 21.61987305 16.91259766 C22.31049988 20.05822642 22.5066268 23.13634525 22.7175293 26.35009766 C22.80131836 27.56697266 22.88510742 28.78384766 22.97143555 30.03759766 C23.20272847 35.4705209 23.1550293 40.91225328 23.1550293 46.35009766 C8.3050293 46.35009766 -6.5449707 46.35009766 -21.8449707 46.35009766 C-21.24325825 39.73126062 -20.63840969 33.37221135 -19.4699707 26.87353516 C-19.34058105 26.13680573 -19.21119141 25.40007629 -19.07788086 24.64102173 C-18.8078057 23.10989674 -18.53550335 21.57916296 -18.26098633 20.04882812 C-17.83974885 17.69593006 -17.42788315 15.34151553 -17.0168457 12.98681641 C-16.75176926 11.49062537 -16.48616437 9.99452783 -16.2199707 8.49853516 C-16.09702637 7.79449554 -15.97408203 7.09045593 -15.84741211 6.36508179 C-14.28140398 -2.28292809 -7.5473367 0.05878359 0 0 Z " fill="#B4E6FF" transform="translate(188.844970703125,58.64990234375)"/>
<path d="M0 0 C4.97828611 3.05761697 7.82410016 8.46070031 10.375 13.5625 C10.41522391 15.8954866 10.41820247 18.22956666 10.375 20.5625 C7.735 20.5625 5.095 20.5625 2.375 20.5625 C2.33632812 21.43261719 2.33632812 21.43261719 2.296875 22.3203125 C1.78091672 29.42646516 -0.20990289 33.25474054 -5.4375 38.25 C-11.54652881 42.68204051 -17.13715086 44.71549624 -24.625 43.5625 C-29.08276074 42.16999714 -31.75256237 39.92142921 -34.0625 35.875 C-35.98249402 31.50168029 -36.22115423 27.27309576 -35.625 22.5625 C-35.295 21.9025 -34.965 21.2425 -34.625 20.5625 C-37.265 20.5625 -39.905 20.5625 -42.625 20.5625 C-42.13 16.1075 -42.13 16.1075 -41.625 11.5625 C-40.635 13.0475 -40.635 13.0475 -39.625 14.5625 C-39.30789062 14.06621094 -38.99078125 13.56992188 -38.6640625 13.05859375 C-30.14578025 0.65766904 -14.68876736 -6.29927645 0 0 Z " fill="#5C5E6F" transform="translate(199.625,137.4375)"/>
<path d="M0 0 C4.82431262 4.47131414 6.81648569 7.62944976 7.125 14.25 C6.86583245 21.230246 4.63027112 25.17881055 -0.1171875 30.125 C-5.52982633 35.12868389 -10.84429123 36.90244572 -18.1953125 36.6796875 C-22.75373942 36.0602497 -25.95824056 34.3137927 -28.7578125 30.64453125 C-31.57710834 25.70583469 -32.3893216 20.97799104 -31.4375 15.375 C-29.10191665 7.81544915 -24.00744736 3.80905502 -17.6875 -0.5 C-11.66290221 -2.5854377 -5.79644734 -2.74013874 0 0 Z " fill="#5D5E6F" transform="translate(77.4375,144.625)"/>
<path d="M0 0 C4.04455856 0.23111763 6.5749127 2.86298782 9.5625 5.375 C10.98755859 6.56222656 10.98755859 6.56222656 12.44140625 7.7734375 C13.28574219 8.50820312 14.13007813 9.24296875 15 10 C15.94166016 10.73089844 15.94166016 10.73089844 16.90234375 11.4765625 C18 13 18 13 18.00390625 15.4375 C16.66726842 18.84930707 14.94817348 19.94595042 11.9375 22 C10.94492188 22.67933594 9.95234375 23.35867187 8.9296875 24.05859375 C7.96289062 24.69925781 6.99609375 25.33992188 6 26 C5.21882813 26.54785156 4.43765625 27.09570312 3.6328125 27.66015625 C-1.43905272 31.09562722 -1.43905272 31.09562722 -4.22265625 30.62109375 C-4.80917969 30.41613281 -5.39570312 30.21117188 -6 30 C-6.75 28.25 -6.75 28.25 -7 26 C-4.88351863 23.4299869 -2.77845583 21.85230389 0 20 C-29.37 19.67 -58.74 19.34 -89 19 C-89.33 17.68 -89.66 16.36 -90 15 C-89.34 14.01 -88.68 13.02 -88 12 C-85.10219978 11.68407132 -82.41361229 11.56263499 -79.51123047 11.56762695 C-78.63311707 11.5574353 -77.75500366 11.54724365 -76.85028076 11.53674316 C-73.93918592 11.50647712 -71.02841937 11.49732655 -68.1171875 11.48828125 C-66.10221247 11.47144464 -64.08724801 11.4532958 -62.07229614 11.43388367 C-56.76226097 11.38626697 -51.45226862 11.3565332 -46.14208984 11.33044434 C-40.72615089 11.30069755 -35.31035971 11.25414714 -29.89453125 11.20898438 C-19.26309795 11.12281856 -8.63163433 11.05553248 2 11 C1.17371094 10.22011719 0.34742188 9.44023438 -0.50390625 8.63671875 C-1.32761719 7.76660156 -2.15132813 6.89648438 -3 6 C-2.91236229 2.93268023 -2.18647619 2.18647619 0 0 Z " fill="#FEFCFD" transform="translate(132,97)"/>
<path d="M0 0 C4.58974462 -0.1241194 9.17850086 -0.21457876 13.76953125 -0.2746582 C15.32927479 -0.29971627 16.8889019 -0.33377301 18.44824219 -0.37719727 C20.69755843 -0.43824193 22.9453156 -0.46629426 25.1953125 -0.48828125 C25.8861795 -0.51408768 26.57704651 -0.5398941 27.28884888 -0.56648254 C31.071808 -0.56864641 33.49461561 0.00931233 36.42919922 2.30395508 C39.56764275 5.59529714 39.91685849 7.51035842 40 12 C39.67 12.99 39.34 13.98 39 15 C25.14 15 11.28 15 -3 15 C-1.875 3.75 -1.875 3.75 0 0 Z " fill="#C8CFE2" transform="translate(175,59)"/>
<path d="M0 0 C12.54 0 25.08 0 38 0 C38 2.64 38 5.28 38 8 C37.22285645 8.01458252 36.44571289 8.02916504 35.64501953 8.04418945 C32.13783312 8.11846978 28.6316199 8.21519589 25.125 8.3125 C23.90167969 8.33505859 22.67835938 8.35761719 21.41796875 8.38085938 C20.25136719 8.41630859 19.08476562 8.45175781 17.8828125 8.48828125 C16.80402832 8.51446533 15.72524414 8.54064941 14.61376953 8.56762695 C13.75122559 8.71031006 12.88868164 8.85299316 12 9 C10.1517461 11.77238086 9.67933456 12.82715589 9.18359375 15.94140625 C9.05919922 16.68970703 8.93480469 17.43800781 8.80664062 18.20898438 C8.68482422 18.98564453 8.56300781 19.76230469 8.4375 20.5625 C7.11632156 28.76735688 7.11632156 28.76735688 6 31 C2.37 31 -1.26 31 -5 31 C-4.37797539 20.42558156 -2.15499007 10.3578555 0 0 Z " fill="#9CD5FD" transform="translate(172,74)"/>
<path d="M0 0 C0.96480286 -0.00960754 1.92960571 -0.01921509 2.92364502 -0.02911377 C3.97461365 -0.03336365 5.02558228 -0.03761353 6.10839844 -0.04199219 C7.18273132 -0.04769226 8.25706421 -0.05339233 9.36395264 -0.05926514 C11.64382945 -0.06873344 13.92372005 -0.07525635 16.20361328 -0.07910156 C19.68904657 -0.08878736 23.17388547 -0.11978587 26.65917969 -0.15136719 C28.87141576 -0.15789887 31.08365606 -0.16314869 33.29589844 -0.16699219 C34.86020599 -0.18551239 34.86020599 -0.18551239 36.45611572 -0.20440674 C45.39307661 -0.1769662 45.39307661 -0.1769662 49.46777344 3.16113281 C50.34369141 3.85142578 50.34369141 3.85142578 51.23730469 4.55566406 C52.85215048 6.66265334 52.96485773 8.22089605 53.15527344 10.84863281 C53.25388672 12.06099609 53.25388672 12.06099609 53.35449219 13.29785156 C53.41056641 14.22017578 53.41056641 14.22017578 53.46777344 15.16113281 C50.82777344 15.16113281 48.18777344 15.16113281 45.46777344 15.16113281 C45.15839844 14.35675781 44.84902344 13.55238281 44.53027344 12.72363281 C43.70441999 10.27032877 43.70441999 10.27032877 42.46777344 9.16113281 C40.96460574 9.03869971 39.45589176 8.98336996 37.94799805 8.95581055 C36.5066172 8.92589272 36.5066172 8.92589272 35.03611755 8.89537048 C33.99133743 8.87865799 32.94655731 8.8619455 31.87011719 8.84472656 C30.80612198 8.82394547 29.74212677 8.80316437 28.64588928 8.78175354 C25.23241904 8.71614028 21.81886915 8.65731859 18.40527344 8.59863281 C16.09732235 8.55545878 13.78937944 8.51184487 11.48144531 8.46777344 C5.81030661 8.36044697 0.13908792 8.25870289 -5.53222656 8.16113281 C-5.57464379 5.82818506 -5.57315594 3.49410714 -5.53222656 1.16113281 C-3.92904697 -0.44204678 -2.21950317 0.01776273 0 0 Z " fill="#C6CEE1" transform="translate(171.5322265625,104.8388671875)"/>
<path d="M0 0 C4.97828611 3.05761697 7.82410016 8.46070031 10.375 13.5625 C10.41522391 15.8954866 10.41820247 18.22956666 10.375 20.5625 C7.735 20.5625 5.095 20.5625 2.375 20.5625 C2.21644531 19.95921875 2.05789062 19.3559375 1.89453125 18.734375 C0.38307477 13.55701027 -0.79605344 10.45986793 -5.625 7.5625 C-10.75397996 5.85284001 -15.97507582 5.59433872 -21.10546875 7.46875 C-26.93148392 10.51350165 -31.48679901 14.14789702 -33.625 20.5625 C-36.595 20.5625 -39.565 20.5625 -42.625 20.5625 C-42.13 16.1075 -42.13 16.1075 -41.625 11.5625 C-40.635 13.0475 -40.635 13.0475 -39.625 14.5625 C-39.30789062 14.06621094 -38.99078125 13.56992188 -38.6640625 13.05859375 C-30.14578025 0.65766904 -14.68876736 -6.29927645 0 0 Z " fill="#959BB4" transform="translate(199.625,137.4375)"/>
<path d="M0 0 C2.72122817 1.73605947 3.36063848 3.04914926 5 6 C5.74211278 9.95793482 5.22901909 11.57589057 3.3125 15.125 C-1.88598263 21.5879784 -1.88598263 21.5879784 -6.14453125 22.41796875 C-10.31398574 22.67380592 -12.47721284 22.3307429 -16.0625 20.0625 C-18.2966047 16.53117322 -18.77994648 14.40832235 -18.56640625 10.2890625 C-17.57792084 6.29421801 -15.05007165 3.65498465 -12 1 C-8.25605162 -0.87197419 -4.06671062 -0.67033692 0 0 Z " fill="#C5CDE0" transform="translate(190,151)"/>
<path d="M0 0 C2.89868495 1.70031087 3.36697801 2.84657822 5 6 C5.25119931 11.2751856 4.42598087 13.8946954 1.0625 17.9375 C-1.92980857 21.16507607 -3.90136058 22.18224433 -8.3125 22.375 C-11.86905532 22.31189983 -12.93115282 22.04355638 -16.0625 20.0625 C-18.2966047 16.53117322 -18.77994648 14.40832235 -18.56640625 10.2890625 C-17.57792084 6.29421801 -15.05007165 3.65498465 -12 1 C-8.25049275 -0.87475362 -4.07331259 -0.65760376 0 0 Z " fill="#C5CDE0" transform="translate(72,151)"/>
<path d="M0 0 C3.96 0 7.92 0 12 0 C11.38487182 5.00890086 10.7282448 10.00632136 10 15 C12.31 15 14.62 15 17 15 C16.7161296 17.54275398 16.42316578 20.08391554 16.125 22.625 C16.00705078 23.69427734 16.00705078 23.69427734 15.88671875 24.78515625 C14.62353516 35.37646484 14.62353516 35.37646484 12 38 C10.00041636 38.04080783 7.99954746 38.04254356 6 38 C6.46569122 30.1812896 7.22458462 22.63600985 9 15 C8.0925 15.0825 7.185 15.165 6.25 15.25 C3 15 3 15 0.5625 13.6875 C-2.042254 9.20732312 -0.71844156 5.02909089 0 0 Z " fill="#C8D0E2" transform="translate(205,120)"/>
<path d="M0 0 C0.33 0.99 0.66 1.98 1 3 C11.23 3 21.46 3 32 3 C32.66 4.32 33.32 5.64 34 7 C33.67 7.99 33.34 8.98 33 10 C21.78 10 10.56 10 -1 10 C-0.67 6.7 -0.34 3.4 0 0 Z " fill="#B0B8D1" transform="translate(173,64)"/>
<path d="M0 0 C3.96 0 7.92 0 12 0 C11.38487182 5.00890086 10.7282448 10.00632136 10 15 C6.33205797 15.28214939 3.79696836 15.41840839 0.5 13.6875 C-2.00844012 9.19321146 -0.71419749 4.99938243 0 0 Z " fill="#FDC753" transform="translate(205,120)"/>
<path d="M0 0 C2.64 0 5.28 0 8 0 C7.69257097 2.31317961 7.37892298 4.62553352 7.0625 6.9375 C6.88847656 8.22527344 6.71445313 9.51304687 6.53515625 10.83984375 C6 14 6 14 5 15 C2.66702567 15.04092937 0.33294775 15.04241723 -2 15 C-2.22577402 9.5814234 -1.46670113 5.22512279 0 0 Z " fill="#F1F3F8" transform="translate(217,120)"/>
<path d="M0 0 C0.598125 0.226875 1.19625 0.45375 1.8125 0.6875 C2.5 2.5 2.5 2.5 2.8125 4.6875 C1.625 6.5 1.625 6.5 -0.1875 7.6875 C-2.375 7.375 -2.375 7.375 -4.1875 6.6875 C-4.875 4.875 -4.875 4.875 -5.1875 2.6875 C-3.58493056 0.24147296 -2.95482043 -0.4221172 0 0 Z " fill="#82889C" transform="translate(184.1875,158.3125)"/>
<path d="M0 0 C0.598125 0.226875 1.19625 0.45375 1.8125 0.6875 C2.5 2.5 2.5 2.5 2.8125 4.6875 C1.625 6.5 1.625 6.5 -0.1875 7.6875 C-2.375 7.375 -2.375 7.375 -4.1875 6.6875 C-4.875 4.875 -4.875 4.875 -5.1875 2.6875 C-3.58493056 0.24147296 -2.95482043 -0.4221172 0 0 Z " fill="#83889D" transform="translate(66.1875,158.3125)"/>
</svg>
