<?xml version="1.0" encoding="UTF-8"?>
<svg version="1.1" xmlns="http://www.w3.org/2000/svg" width="225" height="225">
<path d="M0 0 C74.25 0 148.5 0 225 0 C225 74.25 225 148.5 225 225 C150.75 225 76.5 225 0 225 C0 150.75 0 76.5 0 0 Z " fill="#FDFDFD" transform="translate(0,0)"/>
<path d="M0 0 C10.83357338 9.18687023 20.27805861 23.09596965 22.0234375 37.5078125 C22.05695313 38.12398437 22.09046875 38.74015625 22.125 39.375 C22.80608325 43.59771616 23.87014951 45.19015886 26.75 48.25 C28.41598628 51.58197255 27.93471159 55.31975637 27.953125 58.984375 C27.95882507 59.85515686 27.96452515 60.72593872 27.97039795 61.62310791 C27.97985443 63.46910383 27.9863845 65.31511668 27.99023438 67.16113281 C27.9999137 69.97491302 28.03091969 72.78795463 28.0625 75.6015625 C28.06903277 77.395829 28.07428216 79.19010072 28.078125 80.984375 C28.0904718 81.82208435 28.1028186 82.6597937 28.11553955 83.52288818 C28.09660378 88.53222441 27.43378131 91.8585189 24.75 96.25 C24.09 96.25 23.43 96.25 22.75 96.25 C22.78480469 96.91644531 22.81960937 97.58289063 22.85546875 98.26953125 C23.21091198 110.37152704 20.23673417 121.23949226 11.86328125 130.2890625 C1.37050036 139.97787786 -9.95175947 141.63835616 -23.82348633 141.67553711 C-25.9440127 141.68753685 -28.06171713 141.73692063 -30.18164062 141.78710938 C-31.54165265 141.79656523 -32.90168229 141.80380427 -34.26171875 141.80859375 C-36.09416138 141.82877563 -36.09416138 141.82877563 -37.96362305 141.84936523 C-42.16716136 141.08272928 -43.63508313 139.56040261 -46.25 136.25 C-46.8125 133.1875 -46.8125 133.1875 -46.25 130.25 C-44.01118601 127.24917391 -42.85527397 126.33990195 -39.10888672 125.78344727 C-37.89475098 125.79432373 -36.68061523 125.8052002 -35.4296875 125.81640625 C-34.07551977 125.80678938 -32.72135312 125.79701868 -31.3671875 125.78710938 C-29.25441909 125.79564828 -27.14196262 125.81232018 -25.02929688 125.8347168 C-16.26803986 125.89756213 -8.52864761 125.70876103 -1.25 120.25 C3.85544272 114.68337537 5.89858328 110.84654406 5.9375 103.25 C5.95167969 101.991875 5.96585937 100.73375 5.98046875 99.4375 C6.09263547 96.15645401 6.09263547 96.15645401 3.75 94.25 C3.24210937 95.27480469 2.73421875 96.29960938 2.2109375 97.35546875 C1.51633734 98.71650961 0.82098456 100.07716655 0.125 101.4375 C-0.20628906 102.11103516 -0.53757812 102.78457031 -0.87890625 103.47851562 C-3.7812517 109.0915422 -7.03538861 113.17846287 -13.25 115.25 C-15.46290218 115.36636425 -17.67880786 115.42858684 -19.89453125 115.4609375 C-21.21130859 115.48929688 -22.52808594 115.51765625 -23.88476562 115.546875 C-25.97143091 115.58803501 -28.05786861 115.62494135 -30.14477539 115.65136719 C-32.16600386 115.6791504 -34.18620522 115.72502193 -36.20703125 115.7734375 C-37.41335205 115.79325684 -38.61967285 115.81307617 -39.86254883 115.83349609 C-44.64994788 116.42213053 -48.03322304 117.88112592 -51.25 121.5 C-53.25 123.25 -53.25 123.25 -56 123.11328125 C-64.80880537 120.77344232 -72.66173785 112.92441466 -77.25 105.25 C-79.32854555 101.62216819 -81.32582063 97.96189212 -83.25 94.25 C-84.425625 95.4875 -84.425625 95.4875 -85.625 96.75 C-89.22508557 99.76004779 -92.33856159 99.86262712 -96.9140625 99.6015625 C-100.06773073 99.12693016 -101.87943817 98.40505621 -104.25 96.25 C-107.45930453 91.14720091 -107.7043597 86.96197787 -107.68359375 81.125 C-107.6888356 80.25987793 -107.69407745 79.39475586 -107.69947815 78.50341797 C-107.70587791 76.68132598 -107.70458795 74.85919257 -107.69604492 73.03710938 C-107.68752564 70.25836341 -107.71633844 67.48166873 -107.74804688 64.703125 C-107.74965895 62.92708395 -107.74908124 61.15103927 -107.74609375 59.375 C-107.75732773 58.54983887 -107.76856171 57.72467773 -107.78013611 56.87451172 C-107.70958376 51.00067868 -106.49977661 47.49977661 -102.25 43.25 C-101.85836329 41.02369595 -101.48732215 38.79376235 -101.125 36.5625 C-98.25631193 21.05371332 -89.65505269 7.62715042 -77.06640625 -1.8671875 C-52.74327272 -18.12759022 -23.48767792 -17.73194558 0 0 Z " fill="#010101" transform="translate(152.25,13.75)"/>
<path d="M0 0 C2.38671875 1.5390625 2.38671875 1.5390625 4.6875 3.625 C10.41285971 8.50279891 16.60922855 12.40104855 23.703125 14.984375 C27.01643679 16.44944484 28.02930552 19.01409927 30 22 C37.24661412 27.47193311 43.53582162 27.21690924 52.23901367 27.24023438 C54.39868379 27.24982758 56.55735465 27.2808054 58.71679688 27.3125 C75.67528978 27.44391949 88.7039756 23.31805799 101.3203125 11.734375 C103.07930871 10.09220996 103.07930871 10.09220996 104 8 C113.41552657 9.69267893 122.51373042 20.28163514 127.9453125 27.6328125 C136.71026893 40.95099305 141.18618691 53.94864288 141.5 69.875 C141.5460437 71.23117432 141.5460437 71.23117432 141.59301758 72.61474609 C141.59422706 76.95354701 141.43879143 80.06805057 138.71875 83.5703125 C134.35116909 87.47352418 130.34369183 87.14643622 124.6811676 87.13371277 C123.57264833 87.1371111 123.57264833 87.1371111 122.44173473 87.14057809 C119.9644772 87.14691018 117.48727449 87.14608924 115.01000977 87.14526367 C113.23430307 87.14825563 111.45859703 87.15165824 109.68289185 87.15544128 C104.85856321 87.16428106 100.03425231 87.16661937 95.20991635 87.16725707 C91.18395326 87.16820628 87.15799431 87.17188466 83.13203281 87.17542917 C73.63513888 87.18357339 64.13825444 87.1860134 54.64135742 87.18530273 C44.84043608 87.18470171 35.03956973 87.19525854 25.2386623 87.2110464 C16.8266809 87.22411469 8.4147175 87.22948694 0.00272602 87.22884732 C-5.02258522 87.22859216 -10.04784758 87.2314537 -15.07314873 87.24202538 C-19.79845457 87.25169456 -24.52366466 87.25179365 -29.24897385 87.24450874 C-30.98360267 87.24346148 -32.71823742 87.24583416 -34.45285606 87.2518692 C-36.82007848 87.25957206 -39.18696883 87.25495575 -41.55418396 87.24723816 C-42.24115292 87.25238172 -42.92812187 87.25752529 -43.63590807 87.26282471 C-48.79371056 87.22564554 -52.33049903 86.41793233 -56.28125 83.0625 C-58.86574766 78.45739507 -58.59670306 74.19528832 -58.5 69 C-58.48646484 67.96488281 -58.47292969 66.92976563 -58.45898438 65.86328125 C-58.24696797 58.00388254 -57.28599928 51.21068574 -54 44 C-53.72623535 43.39752441 -53.4524707 42.79504883 -53.17041016 42.17431641 C-48.99771766 33.20698537 -44.02987746 26.02987746 -37 19 C-36.46117188 18.37867188 -35.92234375 17.75734375 -35.3671875 17.1171875 C-27.71080665 8.53742403 -11.77584788 -1.25242481 0 0 Z " fill="#000000" transform="translate(71,138)"/>
<path d="M0 0 C0.825 0.48726562 1.65 0.97453125 2.5 1.4765625 C3.304375 1.92257813 4.10875 2.36859375 4.9375 2.828125 C16.00112129 9.51862571 22.86045424 19.75117733 26.23046875 32.16796875 C26.625 34.5390625 26.625 34.5390625 26.5 38.4765625 C24.4921875 40.72265625 24.4921875 40.72265625 22.5 42.4765625 C22.17128906 41.79851563 21.84257812 41.12046875 21.50390625 40.421875 C15.37724624 28.43420961 6.99228185 18.68447373 -5.75 13.6640625 C-17.16744291 10.04853891 -28.26250525 10.44571522 -39.0625 15.73046875 C-48.08105187 20.77590859 -54.17413017 27.17958183 -59.17578125 36.1796875 C-60.47038137 38.4251886 -61.90472829 40.43686025 -63.5 42.4765625 C-65.47507049 40.65949765 -66.45434762 39.23743554 -66.6171875 36.5234375 C-65.70619348 25.19542487 -59.40688769 14.89432465 -51.25 7.2265625 C-46.74014869 3.40877944 -41.95580502 0.71439667 -36.5 -1.5234375 C-35.61957031 -1.88824219 -34.73914063 -2.25304687 -33.83203125 -2.62890625 C-23.18986752 -5.48594669 -9.83009984 -4.99882918 0 0 Z " fill="#F7F7F7" transform="translate(132.5,19.5234375)"/>
</svg>
